<svg width="160" height="148" viewBox="0 0 160 148" fill="none" xmlns="http://www.w3.org/2000/svg">
<g filter="url(#filter0_di_11_72)">
<path fill-rule="evenodd" clip-rule="evenodd" d="M80 96C102.091 96 120 78.0914 120 56C120 33.9086 102.091 16 80 16C57.9086 16 40 33.9086 40 56C40 78.0914 57.9086 96 80 96ZM75.4253 42.904L92.7587 54.9035C93.1187 55.1528 93.3333 55.5621 93.3333 55.9995C93.3333 56.4368 93.1187 56.8461 92.7587 57.0968L75.4253 69.0963C75.0173 69.3776 74.4867 69.4123 74.048 69.1803C73.608 68.9496 73.3333 68.495 73.3333 67.999L73.3333 43.9999C73.3333 43.504 73.608 43.0493 74.048 42.8187C74.2427 42.7173 74.4547 42.6667 74.6667 42.6667C74.9333 42.6667 75.1973 42.7467 75.4253 42.904Z" fill="url(#paint0_linear_11_72)"/>
</g>
<defs>
<filter id="filter0_di_11_72" x="0" y="-12" width="160" height="160" filterUnits="userSpaceOnUse" color-interpolation-filters="sRGB">
<feFlood flood-opacity="0" result="BackgroundImageFix"/>
<feColorMatrix in="SourceAlpha" type="matrix" values="0 0 0 0 0 0 0 0 0 0 0 0 0 0 0 0 0 0 127 0" result="hardAlpha"/>
<feOffset dy="12"/>
<feGaussianBlur stdDeviation="20"/>
<feColorMatrix type="matrix" values="0 0 0 0 1 0 0 0 0 0.48 0 0 0 0 0 0 0 0 0.4 0"/>
<feBlend mode="normal" in2="BackgroundImageFix" result="effect1_dropShadow_11_72"/>
<feBlend mode="normal" in="SourceGraphic" in2="effect1_dropShadow_11_72" result="shape"/>
<feColorMatrix in="SourceAlpha" type="matrix" values="0 0 0 0 0 0 0 0 0 0 0 0 0 0 0 0 0 0 127 0" result="hardAlpha"/>
<feOffset dx="4" dy="12"/>
<feGaussianBlur stdDeviation="20"/>
<feComposite in2="hardAlpha" operator="arithmetic" k2="-1" k3="1"/>
<feColorMatrix type="matrix" values="0 0 0 0 1 0 0 0 0 0.713726 0 0 0 0 0.113725 0 0 0 0.5 0"/>
<feBlend mode="normal" in2="shape" result="effect2_innerShadow_11_72"/>
</filter>
<linearGradient id="paint0_linear_11_72" x1="113.867" y1="33.2" x2="42.8" y2="70.4" gradientUnits="userSpaceOnUse">
<stop stop-color="#FEB722"/>
<stop offset="1" stop-color="#FF7A00"/>
</linearGradient>
</defs>
</svg>
