<svg width="24" height="24" viewBox="0 0 24 24" fill="none" xmlns="http://www.w3.org/2000/svg">
<path d="M10 18V6C10 4.89543 9.10457 4 8 4C6.89543 4 6 4.89543 6 6V18C6 19.1046 6.89543 20 8 20C9.10457 20 10 19.1046 10 18Z" fill="url(#paint0_linear_9_882)"/>
<path d="M18 18V6C18 4.89543 17.1046 4 16 4C14.8954 4 14 4.89543 14 6V18C14 19.1046 14.8954 20 16 20C17.1046 20 18 19.1046 18 18Z" fill="url(#paint1_linear_9_882)"/>
<defs>
<linearGradient id="paint0_linear_9_882" x1="9.2" y1="4.9" x2="2.59243" y2="7.39579" gradientUnits="userSpaceOnUse">
<stop stop-color="#8673FD"/>
<stop offset="1" stop-color="#5C42FF"/>
</linearGradient>
<linearGradient id="paint1_linear_9_882" x1="17.2" y1="4.9" x2="10.5924" y2="7.39579" gradientUnits="userSpaceOnUse">
<stop stop-color="#8673FD"/>
<stop offset="1" stop-color="#5C42FF"/>
</linearGradient>
</defs>
</svg>
